<svg xmlns="http://www.w3.org/2000/svg" viewBox="0 0 24 24" width="24" height="24">
<path d="M8.97903 8.00765C6.69956 8.15234 4.95126 10.3164 5.40579 12.7826C5.6958 14.357 6.93028 15.6274 8.46144 15.9257C10.5433 16.3316 12.4 15.0283 12.9462 13.1431H15.3334V13.7146C15.3334 14.346 15.8306 14.8575 16.4445 14.8575C17.0584 14.8575 17.5557 14.346 17.5557 13.7146V13.1431C18.1696 13.1431 18.6668 12.6316 18.6668 12.0002C18.6668 11.3687 18.1696 10.8572 17.5557 10.8572H12.944C12.5441 9.45324 11.3941 8.34959 9.98275 8.07462C9.64031 8.00783 9.30467 7.98698 8.97903 8.00765ZM9.2221 10.2857C10.1427 10.2857 10.8888 11.0532 10.8888 12.0002C10.8888 12.9471 10.1427 13.7146 9.2221 13.7146C8.30151 13.7146 7.55538 12.9471 7.55538 12.0002C7.55538 11.0532 8.30151 10.2857 9.2221 10.2857Z"/>
<path fill-rule="evenodd" d="M12 22C17.5228 22 22 17.5228 22 12C22 6.47715 17.5228 2 12 2C6.47715 2 2 6.47715 2 12C2 17.5228 6.47715 22 12 22ZM12 24C18.6274 24 24 18.6274 24 12C24 5.37258 18.6274 0 12 0C5.37258 0 0 5.37258 0 12C0 18.6274 5.37258 24 12 24Z"/>
</svg>
