<svg xmlns="http://www.w3.org/2000/svg" viewBox="0 0 24 24" width="24" height="24">
<path d="M18.6343 6.64267C19.0574 6.28767 19.6882 6.34285 20.0432 6.76593L23.7517 11.1856C23.9023 11.365 23.9791 11.5819 23.9853 11.7992C24.036 12.0812 23.9658 12.3829 23.7672 12.6196L20.0753 17.0194C19.7203 17.4425 19.0895 17.4977 18.6664 17.1427C18.2434 16.7877 18.1882 16.1569 18.5432 15.7338L20.8372 12.9999H11C10.4477 12.9999 10 12.5522 10 11.9999C10 11.4476 10.4477 10.9999 11 10.9999H20.9851L18.5111 8.0515C18.1561 7.62843 18.2113 6.99767 18.6343 6.64267Z"/>
<path d="M10.9512 3C6.0122 3 2 7.02482 2 12C2 16.9752 6.0122 21 10.9512 21C12.3528 21 13.6765 20.6768 14.8554 20.1014C15.3517 19.8591 15.9504 20.065 16.1927 20.5613C16.435 21.0576 16.2291 21.6563 15.7328 21.8986C14.2869 22.6045 12.6637 23 10.9512 23C4.89842 23 0 18.0705 0 12C0 5.92948 4.89842 1 10.9512 1C12.6637 1 14.2869 1.39553 15.7328 2.10137C16.2291 2.34365 16.435 2.9424 16.1927 3.4387C15.9504 3.935 15.3517 4.14092 14.8554 3.89863C13.6765 3.32316 12.3528 3 10.9512 3Z"/>
</svg>
