<svg xmlns="http://www.w3.org/2000/svg" viewBox="0 0 25 24" width="25" height="24">
<rect x="1" y="22" width="24" height="2" rx="1"/>
<rect x="19" y="12" width="6" height="2" rx="1"/>
<rect x="10" y="12" width="3" height="2" rx="1"/>
<rect x="1" y="12" width="3" height="2" rx="1"/>
<rect x="14.1201" y="12.5283" width="12.416" height="2" rx="1" transform="rotate(-45 14.1201 12.5283)"/>
<rect x="0.583008" y="17.8608" width="15.3723" height="2" rx="1" transform="rotate(-45 0.583008 17.8608)"/>
<rect width="7.83407" height="2" rx="1" transform="matrix(-0.707107 -0.707107 -0.707107 0.707107 16.9536 12.5396)"/>
<path d="M20 4C20 3.44771 20.4477 3 21 3L24 3C24.5523 3 25 3.44772 25 4C25 4.55229 24.5523 5 24 5L21 5C20.4477 5 20 4.55228 20 4Z"/>
<rect x="23" y="8" width="5" height="2" rx="1" transform="rotate(-90 23 8)"/>
</svg>
