<svg xmlns="http://www.w3.org/2000/svg" viewBox="0 0 24 24" width="24" height="24">
<path d="M24 12C24 18.6274 18.6274 24 12 24C5.37258 24 0 18.6274 0 12C0 5.37258 5.37258 0 12 0C18.6274 0 24 5.37258 24 12ZM13.3563 14.4459C13.4384 14.3655 13.4844 14.2565 13.4844 14.1429C13.4844 13.1804 14.0275 12.5958 14.609 11.9698C15.279 11.2485 16 10.4723 16 9C16 7.34309 14.4331 6 12.5001 6C10.5671 6 9.0002 7.34311 9.0002 9C8.99668 9.32803 9.03911 9.65498 9.12632 9.97171C9.15227 10.0623 9.20778 10.142 9.28437 10.1987C9.36095 10.2554 9.45439 10.286 9.55039 10.2857H10.4388C10.5084 10.2857 10.577 10.2695 10.6388 10.2382C10.7006 10.2069 10.7539 10.1616 10.7942 10.106C10.8344 10.0505 10.8605 9.98625 10.8702 9.91877C10.88 9.85128 10.8731 9.7825 10.8501 9.71817C10.7752 9.48604 10.7398 9.24339 10.7455 9C10.7455 8.28994 11.5723 7.71429 12.418 7.71429C13.2637 7.71429 14.0859 8.28991 14.0859 9C14.0859 9.99075 13.556 10.5562 12.9879 11.1624C12.3319 11.8624 11.625 12.6167 11.625 14.1429C11.625 14.2565 11.6711 14.3655 11.7532 14.4459C11.8352 14.5263 11.9465 14.5714 12.0625 14.5714H13.047C13.163 14.5714 13.2743 14.5263 13.3563 14.4459ZM13.1482 15.9069C12.9564 15.7813 12.7308 15.7143 12.5001 15.7143C12.3469 15.7143 12.1952 15.7438 12.0536 15.8013C11.9121 15.8587 11.7835 15.9429 11.6752 16.049C11.5668 16.1551 11.4809 16.2811 11.4223 16.4198C11.3636 16.5584 11.3335 16.7071 11.3335 16.8571C11.3335 17.0832 11.4019 17.3041 11.5301 17.4921C11.6583 17.68 11.8405 17.8265 12.0536 17.913C12.2668 17.9995 12.5014 18.0221 12.7277 17.978C12.954 17.9339 13.1619 17.8251 13.325 17.6653C13.4882 17.5054 13.5993 17.3018 13.6443 17.0801C13.6893 16.8584 13.6662 16.6286 13.5779 16.4198C13.4896 16.211 13.3401 16.0325 13.1482 15.9069Z"/>
</svg>

