<svg width="25" height="96" viewBox="0 0 25 96" fill="none" xmlns="http://www.w3.org/2000/svg">
<path d="M20.7999 0.5H20.5999H4.4999C2.5999 0.5 0.899902 2 0.899902 4V4.2L4.5999 72.2C4.6999 74.1 6.2999 75.5 8.1999 75.5H16.8999C18.7999 75.5 20.3999 74.1 20.4999 72.2L24.1999 4.2C24.2999 2.2 22.7999 0.6 20.7999 0.5Z" fill="#27272E"/>
<path d="M12.4999 88.5C7.49985 88.5 3.29985 91.6 1.59985 96H23.2999C21.7999 91.6 17.4999 88.5 12.4999 88.5Z" fill="#27272E"/>
<path d="M8.1999 76H16.8999C18.9999 76 20.7999 74.3 20.9999 72.2L24.6999 4.2C24.7999 2 23.0999 0.1 20.7999 0H4.4999C2.2999 0 0.399902 1.8 0.399902 4L4.0999 72.2C4.2999 74.3 5.9999 76 8.1999 76ZM1.3999 4C1.3999 2.3 2.7999 1 4.4999 1H20.5999H20.7999C22.4999 1.1 23.7999 2.5 23.6999 4.2L19.9999 72.2C19.8999 73.8 18.4999 75.1 16.8999 75.1H8.1999C6.5999 75.1 5.1999 73.9 5.0999 72.3L1.3999 4.3V4Z" fill="url(#paint0_linear)"/>
<path d="M12.4999 89C17.1999 89 21.1999 91.9 22.7999 96H23.8999C22.1999 91.3 17.7999 88 12.4999 88C7.19985 88 2.79985 91.3 1.09985 96H2.19985C3.79985 91.9 7.79985 89 12.4999 89Z" fill="url(#paint1_linear)"/>
<defs>
<linearGradient id="paint0_linear" x1="12.552" y1="0" x2="12.552" y2="76" gradientUnits="userSpaceOnUse">
<stop stop-color="#373741"/>
<stop offset="1" stop-color="#27272E"/>
</linearGradient>
<linearGradient id="paint1_linear" x1="12.4999" y1="88" x2="12.4999" y2="96" gradientUnits="userSpaceOnUse">
<stop stop-color="#373741"/>
<stop offset="1" stop-color="#27272E"/>
</linearGradient>
</defs>
</svg>
