<svg xmlns="http://www.w3.org/2000/svg" viewBox="0 0 22 100" width="22" height="100">
<path d="M18.1278 0.500293V0.500341L18.1347 0.500246C18.1888 0.499498 18.2428 0.500458 18.2968 0.503136C19.9321 0.584278 21.3297 2.24206 21.2542 4.3657C21.2542 4.3665 21.2542 4.36731 21.2541 4.36811L18.006 75.1917C18.006 75.1924 18.006 75.1931 18.0059 75.1939C17.8921 77.2349 16.4598 78.6854 14.8848 78.6668H14.8789L7.24535 78.6667L7.23943 78.6668C5.66463 78.6854 4.23247 77.2348 4.11902 75.194C4.11897 75.1932 4.11893 75.1925 4.11889 75.1917L0.870798 4.36811C0.87077 4.36732 0.870741 4.36652 0.870713 4.36573C0.868329 4.29857 0.867471 4.23134 0.86814 4.16413C0.889317 2.03865 2.35821 0.477876 3.98995 0.500246L3.98995 0.500293H3.99681H18.1278ZM21.1846 104.167C21.1846 110.872 16.5663 116.167 11.0301 116.167C5.49408 116.166 0.875724 110.872 0.875723 104.167C0.875723 97.4614 5.49395 92.1667 11.0301 92.1667C16.5663 92.1667 21.1846 97.4614 21.1846 104.167Z"/>
</svg>
