<svg xmlns="http://www.w3.org/2000/svg" viewBox="0 0 24 24" width="24" height="24">
<path d="M12 4C10.8954 4 10 3.10457 10 2C10 0.89543 10.8954 -4.82814e-08 12 0C13.1046 4.82832e-08 14 0.895431 14 2C14 3.10457 13.1046 4 12 4Z"/>
<path d="M12 14C10.8954 14 10 13.1046 10 12C10 10.8954 10.8954 10 12 10C13.1046 10 14 10.8954 14 12C14 13.1046 13.1046 14 12 14Z"/>
<path d="M12 24C10.8954 24 10 23.1046 10 22C10 20.8954 10.8954 20 12 20C13.1046 20 14 20.8954 14 22C14 23.1046 13.1046 24 12 24Z"/>
</svg>
