<svg width="62" height="96" viewBox="0 0 62 96" fill="none" xmlns="http://www.w3.org/2000/svg">
<g clip-path="url(#clip0)">
<path d="M36.5 90.4C34.9 89.3 33 88.7 31 88.7C29.7 88.7 28.4 89 27.2 89.5C26 90 25 90.7 24 91.6C23.1 92.5 22.4 93.6 21.9 94.8C21.7 95.2 21.6 95.6 21.5 96H40.4C40.3 95.6 40.2 95.2 40 94.8C39.3 93 38.1 91.5 36.5 90.4Z" fill="#27272E"/>
<path d="M31 0.5C14.1 0.5 0.5 12.5 0.5 27.3C0.5 30.2 0.8 33.2 1.6 36C1.8 36.7 2.2 37.3 2.8 37.8C3.4 38.2 4.1 38.5 4.9 38.5H12.8C13.3 38.5 13.9 38.4 14.3 38.1C14.8 37.9 15.2 37.5 15.5 37.1C15.8 36.7 16 36.2 16.1 35.6C16.2 35.1 16.1 34.5 15.9 34C15.2 31.8 14.9 29.6 15 27.3C15 23.9 16.9 20.8 19.8 18.7C22.7 16.5 26.5 15.2 30.3 15.2C34.2 15.2 38 16.5 40.8 18.7C43.6 20.9 45.6 23.9 45.6 27.4C45.6 36.6 40.8 41.9 35.8 47.4C35.4 47.8 35 48.3 34.6 48.7C29.2 54.7 23.8 61.4 23.8 74.1C23.8 75 24.2 75.9 24.8 76.5C25.4 77.1 26.3 77.5 27.2 77.5H35.9C36.8 77.5 37.7 77.1 38.3 76.5C38.9 75.9 39.3 75 39.3 74.1C39.3 65.2 44.2 59.7 49.4 54C49.8 53.6 50.2 53.1 50.6 52.7C56.1 46.5 61.6 39.7 61.6 27.4C61.5 12.5 47.9 0.5 31 0.5Z" fill="#27272E"/>
<path d="M31 0C13.9 0 0 12.2 0 27.3C0 30 0.5 33.8 0.9 35.3C1.3 36.8 1.9 37.6 2.7 38.1C3.5 38.7 4.3 38.8 5.3 38.9H12.8C13.4 38.9 14 38.8 14.6 38.5C15.1 38.2 15.6 37.8 16 37.3C16.4 36.8 16.6 36.2 16.7 35.6C16.8 35 16.7 34.4 16.5 33.8C15.8 31.7 15.5 29.5 15.6 27.3C15.6 24.2 17.2 21.3 20.2 19C23 16.8 26.8 15.6 30.4 15.6C34 15.6 37.8 16.8 40.6 19C43.6 21.3 45.2 24.2 45.2 27.3C45.2 36.3 40.5 41.5 35.5 46.9L34.3 48.2C28.4 54.5 23.3 61.3 23.3 74C23.3 75 23.7 76 24.4 76.8C25.1 77.5 26.1 77.9 27.1 77.9H35.8C36.8 77.9 37.8 77.5 38.5 76.8C39.2 76.1 39.6 75.1 39.6 74C39.6 65.3 44.4 59.9 49.5 54.3L50.7 53C56.7 46.4 62 39.5 62 27.3C62 12.2 48.1 0 31 0ZM50.1 52.3L48.9 53.6C43.7 59.4 38.7 64.8 38.7 74C38.7 74.8 38.4 75.5 37.9 76C37.4 76.5 36.6 76.8 35.9 76.8H27.2C26.4 76.8 25.7 76.5 25.2 76C24.7 75.5 24.4 74.7 24.4 74C24.4 61.7 29.4 55.1 35 48.9L36.2 47.6C41.3 42 46.2 36.7 46.2 27.3C46.2 23.9 44.4 20.7 41.2 18.2C38.2 15.9 34.3 14.6 30.4 14.6C26.5 14.6 22.6 15.9 19.6 18.2C16.4 20.7 14.6 23.9 14.6 27.2C14.5 29.5 14.9 31.8 15.6 34C15.8 34.4 15.8 34.9 15.7 35.4C15.6 35.9 15.5 36.3 15.2 36.7C14.9 37.1 14.6 37.4 14.2 37.6C13.8 37.8 13.3 37.9 12.9 37.9H4.9C4.7 37.9 4.5 37.9 4.3 37.8C4.3 37.8 3.5 37.5 2.9 37C2.3 36.5 2.1 35.9 2.1 35.7C1.3 33 1 30.1 1 27.3C1 12.8 14.5 1 31 1C47.5 1 61 12.8 61 27.3C61 39.1 55.9 45.9 50.1 52.3Z" fill="url(#paint0_linear)"/>
<path d="M36.7 90.0001C33.9 88.1001 30.2 87.7001 27 89.0001C25.7 89.5001 24.6 90.3001 23.6 91.3001C22.6 92.3001 21.9 93.4001 21.4 94.7001C21.2 95.1001 21.1 95.6001 21 96.1001H22C22.1 95.8001 22.2 95.4001 22.3 95.1001C22.8 94.0001 23.5 92.9001 24.3 92.1001C25.2 91.2001 26.2 90.5001 27.3 90.1001C28.4 89.6001 29.6 89.4001 30.9 89.4001C32.8 89.4001 34.5 89.9001 36.1 91.0001C37.6 92.0001 38.8 93.5001 39.5 95.2001C39.6 95.5001 39.7 95.8001 39.8 96.2001H40.8C40.7 95.7001 40.5 95.3001 40.4 94.8001C39.8 92.7001 38.4 91.1001 36.7 90.0001Z" fill="url(#paint1_linear)"/>
</g>
<defs>
<linearGradient id="paint0_linear" x1="31" y1="0" x2="31" y2="77.9" gradientUnits="userSpaceOnUse">
<stop stop-color="#373741"/>
<stop offset="1" stop-color="#27272E"/>
</linearGradient>
<linearGradient id="paint1_linear" x1="30.9" y1="88.2429" x2="30.9" y2="96.2001" gradientUnits="userSpaceOnUse">
<stop stop-color="#373741"/>
<stop offset="1" stop-color="#27272E"/>
</linearGradient>
<clipPath id="clip0">
<rect width="62" height="96" fill="white"/>
</clipPath>
</defs>
</svg>
