<svg xmlns="http://www.w3.org/2000/svg" viewBox="0 0 24 24" width="24" height="24">
<path d="M23.6653 13.0188L21.8245 13.5447C21.6581 13.5934 21.5329 13.7313 21.5004 13.9016V13.9016C21.4187 14.308 21.3106 14.7086 21.1769 15.1009C21.1194 15.2649 21.1589 15.4472 21.2791 15.5727L22.6119 16.9501C22.7553 17.0983 22.7831 17.3237 22.68 17.5023L22.1054 18.4976C22.0023 18.6763 21.7932 18.7649 21.5931 18.7147L19.7238 18.2467H19.7238C19.5555 18.2055 19.3782 18.2621 19.2648 18.3931C18.9932 18.7021 18.7025 18.9937 18.3942 19.2662C18.2632 19.3795 18.2066 19.5567 18.2477 19.725L18.7151 21.5927C18.7652 21.7927 18.6767 22.0018 18.4981 22.105L17.5026 22.6796C17.324 22.7828 17.0986 22.755 16.9504 22.6115L15.5661 21.2722C15.4407 21.152 15.2584 21.1123 15.0944 21.1697C14.7047 21.3032 14.3068 21.4115 13.9032 21.4938C13.7331 21.5265 13.5955 21.6515 13.5467 21.8177L13.0191 23.6649C12.9623 23.8633 12.781 24 12.5748 24H11.4255C11.2192 24 11.0379 23.8633 10.9812 23.6649L10.4538 21.8182C10.4051 21.6517 10.2672 21.5265 10.0968 21.494H10.0968C9.69229 21.4127 9.29343 21.3053 8.90275 21.1726C8.73889 21.1153 8.55676 21.1549 8.43146 21.2751L7.05009 22.6115C6.90186 22.755 6.67645 22.7828 6.49781 22.6796L5.50253 22.105C5.32399 22.0018 5.23547 21.7928 5.2856 21.5927L5.75393 19.7224C5.79515 19.5538 5.73843 19.3763 5.60707 19.2629H5.60707C5.29758 18.9918 5.00554 18.7014 4.73271 18.3935C4.61933 18.2628 4.44242 18.2064 4.27435 18.2475L2.40767 18.7148C2.20756 18.7649 1.99849 18.6763 1.89535 18.4976L1.32035 17.5023C1.21722 17.3237 1.245 17.0983 1.38843 16.9501L2.72396 15.5701C2.84428 15.4445 2.88383 15.262 2.82628 15.098V15.098C2.69184 14.7066 2.58287 14.3069 2.50006 13.9015C2.46745 13.7313 2.34243 13.5937 2.1762 13.545L0.335037 13.0189C0.136668 12.9622 -7.65847e-05 12.7809 3.21794e-08 12.5746V11.4253V11.4253C-7.12197e-05 11.219 0.136678 11.0377 0.335048 10.9811L2.17584 10.4549C2.34228 10.4061 2.4674 10.2683 2.49984 10.0979V10.0979C2.58171 9.69156 2.68983 9.29097 2.82353 8.89862C2.88098 8.73467 2.84143 8.55234 2.7212 8.42693L1.38842 7.04978C1.245 6.90154 1.21722 6.67618 1.32035 6.49754L1.89493 5.50223C1.99814 5.32368 2.2072 5.23516 2.40724 5.2853L4.27683 5.75335C4.4452 5.79451 4.62243 5.73796 4.73584 5.60691L4.73584 5.60691C5.00737 5.29785 5.29812 5.00624 5.60637 4.73381C5.7374 4.6205 5.79396 4.44335 5.75282 4.27508L5.28518 2.40736C5.235 2.20731 5.32353 1.99824 5.5021 1.89505L6.49739 1.32043C6.67603 1.21728 6.9014 1.24504 7.04967 1.38846L8.43399 2.72785C8.55942 2.84807 8.74174 2.88767 8.90574 2.83031L8.90574 2.83031C9.29541 2.69687 9.69325 2.58862 10.0968 2.50622C10.2669 2.47359 10.4045 2.34855 10.4533 2.18231L10.981 0.335079C11.0378 0.13675 11.219 2.26156e-05 11.4253 0H12.5746C12.7809 3.83018e-05 12.9621 0.136759 13.0189 0.335079L13.5465 2.18189C13.5952 2.34839 13.7331 2.47358 13.9035 2.50608V2.50608C14.308 2.58738 14.7069 2.69475 15.0976 2.8275C15.2615 2.88465 15.4435 2.84505 15.5689 2.72499L16.9502 1.38855C17.0984 1.24506 17.3238 1.21726 17.5024 1.32042L18.4977 1.89504C18.6763 1.99822 18.7648 2.20731 18.7146 2.40736L18.2464 4.27771C18.2052 4.44628 18.2619 4.62373 18.3933 4.73713C18.7027 5.00824 18.9947 5.29863 19.2676 5.60658C19.3809 5.73729 19.5578 5.79365 19.7259 5.75257L21.5927 5.2853C21.7927 5.23511 22.0018 5.32364 22.105 5.50223L22.6795 6.49754C22.7827 6.67616 22.7549 6.90154 22.6115 7.04978L21.276 8.43002C21.1557 8.55554 21.1161 8.73802 21.1737 8.90208C21.3081 9.29348 21.4171 9.69316 21.4998 10.0986C21.5325 10.2687 21.6575 10.4063 21.8237 10.455L23.6649 10.9812C23.8633 11.0379 24 11.2192 24 11.4255V12.5747V12.5747C24 12.7808 23.8635 12.962 23.6654 13.0188L23.6653 13.0188ZM7.67641 6.35723C7.61214 6.24537 7.46936 6.20679 7.3575 6.27106C7.34746 6.27683 7.33785 6.28334 7.32877 6.29054H7.32877C4.17559 8.8585 3.7012 13.4964 6.26918 16.6495C6.58543 17.0378 6.94046 17.3929 7.32877 17.7091C7.4299 17.7892 7.57685 17.7722 7.65699 17.6711C7.66416 17.662 7.67065 17.6525 7.67641 17.6425L10.3349 13.0382C10.7059 12.3956 10.7059 11.6039 10.3349 10.9613L7.67641 6.35723ZM12 4.61487C11.1065 4.6139 10.2203 4.7755 9.38469 5.09178C9.26547 5.13902 9.20711 5.27397 9.25436 5.39319C9.25865 5.40403 9.26375 5.41452 9.26963 5.42459L11.9333 10.0382C12.3043 10.6808 12.99 11.0767 13.732 11.0767H19.0517C19.1807 11.0768 19.2854 10.9722 19.2855 10.8432C19.2855 10.8317 19.2847 10.8203 19.283 10.809C18.701 7.23868 15.6175 4.61611 12 4.61487H12ZM19.0515 12.9226H13.7322C12.9902 12.9226 12.3045 13.3185 11.9335 13.9611L9.26986 18.5747C9.20527 18.6855 9.24272 18.8276 9.35351 18.8922C9.36358 18.8981 9.37408 18.9032 9.38492 18.9075H9.38492C13.1994 20.3494 17.4606 18.426 18.9025 14.6115C19.0763 14.1516 19.2038 13.6755 19.283 13.1903C19.3016 13.0626 19.2131 12.944 19.0854 12.9254C19.0743 12.9238 19.063 12.923 19.0517 12.923L19.0515 12.9226Z"/>
</svg>
