<svg xmlns="http://www.w3.org/2000/svg" viewBox="0 0 24 24" height="24" width="24">
<path fill-rule="evenodd" d="M22.5 4H10.7439C10.1262 2.25221 8.45933 1 6.5 1C4.54067 1 2.87381 2.25221 2.25606 4H1.5C0.671573 4 0 4.67157 0 5.5C0 6.32843 0.671573 7 1.5 7H2.25606C2.87381 8.74779 4.54067 10 6.5 10C8.45933 10 10.1262 8.74779 10.7439 7H22.5C23.3284 7 24 6.32843 24 5.5C24 4.67157 23.3284 4 22.5 4ZM1.5 17C0.671573 17 0 17.6716 0 18.5C0 19.3284 0.671573 20 1.5 20H13.2561C13.8738 21.7478 15.5407 23 17.5 23C19.4593 23 21.1262 21.7478 21.7439 20H22.5C23.3284 20 24 19.3284 24 18.5C24 17.6716 23.3284 17 22.5 17H21.7439C21.1262 15.2522 19.4593 14 17.5 14C15.5407 14 13.8738 15.2522 13.2561 17H1.5ZM20 18.5C20 19.8807 18.8807 21 17.5 21C16.1193 21 15 19.8807 15 18.5C15 17.1193 16.1193 16 17.5 16C18.8807 16 20 17.1193 20 18.5ZM6.5 8C7.88071 8 9 6.88071 9 5.5C9 4.11929 7.88071 3 6.5 3C5.11929 3 4 4.11929 4 5.5C4 6.88071 5.11929 8 6.5 8Z"/>
</svg>
