<svg xmlns="http://www.w3.org/2000/svg" viewBox="0 0 24 24" width="24" height="24">
<path fill-rule="evenodd" d="M12 22C17.5228 22 22 17.5228 22 12C22 6.47715 17.5228 2 12 2C6.47715 2 2 6.47715 2 12C2 17.5228 6.47715 22 12 22ZM12 24C18.6274 24 24 18.6274 24 12C24 5.37258 18.6274 0 12 0C5.37258 0 0 5.37258 0 12C0 18.6274 5.37258 24 12 24Z"/>
<path d="M12.0002 5C9.67778 5 8.10531 6.77634 8.10531 9.13463C8.10531 11.874 9.92119 13.5754 12.0002 13.5754C14.0792 13.5754 15.8951 11.874 15.8951 9.13463C15.8951 6.77638 14.3226 5 12.0002 5ZM12.0002 14.8541C9.13732 14.8541 7.1911 15.8444 6.10542 17.1329C5.95451 17.3067 5.96703 17.5671 6.13392 17.7259C9.44622 20.7582 14.5541 20.758 17.8661 17.7254C18.033 17.5666 18.0455 17.3062 17.8945 17.1324C16.8087 15.8439 14.8628 14.8541 12.0002 14.8541Z"/>
</svg>
