<svg xmlns="http://www.w3.org/2000/svg" viewBox="0 0 26 24" width="26" height="24">
<path fill-rule="evenodd" clip-rule="evenodd" d="M11.2677 2C12.0375 0.666666 13.962 0.666667 14.7318 2L25.1241 20C25.8939 21.3333 24.9317 23 23.3921 23H2.60747C1.06787 23 0.105625 21.3333 0.875425 20L11.2677 2ZM11.9998 7.99995C11.9998 7.44767 12.4475 6.99995 12.9998 6.99995C13.552 6.99995 13.9998 7.44767 13.9998 7.99995V14C13.9998 14.5522 13.552 15 12.9998 15C12.4475 15 11.9998 14.5522 11.9998 14V7.99995ZM12.9998 19C13.552 19 13.9998 18.5522 13.9998 18C13.9998 17.4477 13.552 17 12.9998 17C12.4475 17 11.9998 17.4477 11.9998 18C11.9998 18.5522 12.4475 19 12.9998 19Z"/>
</svg>
